<svg width="216" height="31" viewBox="0 0 216 31" fill="none" xmlns="http://www.w3.org/2000/svg">
<path d="M14.8 30L8.96 19.4H7.32V30H0.48V1.92H11.96C14.1733 1.92 16.0533 2.30667 17.6 3.08C19.1733 3.85333 20.3467 4.92 21.12 6.28C21.8933 7.61333 22.28 9.10667 22.28 10.76C22.28 12.6267 21.7467 14.2933 20.68 15.76C19.64 17.2267 18.0933 18.2667 16.04 18.88L22.52 30H14.8ZM7.32 14.56H11.56C12.8133 14.56 13.7467 14.2533 14.36 13.64C15 13.0267 15.32 12.16 15.32 11.04C15.32 9.97333 15 9.13333 14.36 8.52C13.7467 7.90667 12.8133 7.6 11.56 7.6H7.32V14.56ZM36.7338 30.32C34.5471 30.32 32.5738 29.8533 30.8138 28.92C29.0804 27.9867 27.7071 26.6533 26.6938 24.92C25.7071 23.1867 25.2138 21.16 25.2138 18.84C25.2138 16.5467 25.7204 14.5333 26.7337 12.8C27.7471 11.04 29.1338 9.69333 30.8938 8.76C32.6538 7.82667 34.6271 7.36 36.8138 7.36C39.0004 7.36 40.9738 7.82667 42.7338 8.76C44.4938 9.69333 45.8804 11.04 46.8938 12.8C47.9071 14.5333 48.4138 16.5467 48.4138 18.84C48.4138 21.1333 47.8938 23.16 46.8538 24.92C45.8404 26.6533 44.4404 27.9867 42.6538 28.92C40.8938 29.8533 38.9204 30.32 36.7338 30.32ZM36.7338 24.4C38.0404 24.4 39.1471 23.92 40.0538 22.96C40.9871 22 41.4538 20.6267 41.4538 18.84C41.4538 17.0533 41.0004 15.68 40.0938 14.72C39.2138 13.76 38.1204 13.28 36.8138 13.28C35.4804 13.28 34.3738 13.76 33.4938 14.72C32.6138 15.6533 32.1738 17.0267 32.1738 18.84C32.1738 20.6267 32.6004 22 33.4538 22.96C34.3338 23.92 35.4271 24.4 36.7338 24.4ZM58.8825 10.84C59.5225 9.8 60.4425 8.96 61.6425 8.32C62.8425 7.68 64.2158 7.36 65.7625 7.36C67.6025 7.36 69.2692 7.82667 70.7625 8.76C72.2558 9.69333 73.4292 11.0267 74.2825 12.76C75.1625 14.4933 75.6025 16.5067 75.6025 18.8C75.6025 21.0933 75.1625 23.12 74.2825 24.88C73.4292 26.6133 72.2558 27.96 70.7625 28.92C69.2692 29.8533 67.6025 30.32 65.7625 30.32C64.1892 30.32 62.8158 30.0133 61.6425 29.4C60.4692 28.76 59.5492 27.92 58.8825 26.88V30H52.0425V0.4H58.8825V10.84ZM68.6425 18.8C68.6425 17.0933 68.1625 15.76 67.2025 14.8C66.2692 13.8133 65.1092 13.32 63.7225 13.32C62.3625 13.32 61.2025 13.8133 60.2425 14.8C59.3092 15.7867 58.8425 17.1333 58.8425 18.84C58.8425 20.5467 59.3092 21.8933 60.2425 22.88C61.2025 23.8667 62.3625 24.36 63.7225 24.36C65.0825 24.36 66.2425 23.8667 67.2025 22.88C68.1625 21.8667 68.6425 20.5067 68.6425 18.8ZM100.231 18.48C100.231 19.12 100.191 19.7867 100.111 20.48H84.6309C84.7376 21.8667 85.1776 22.9333 85.9509 23.68C86.7509 24.4 87.7243 24.76 88.8709 24.76C90.5776 24.76 91.7643 24.04 92.4309 22.6H99.7109C99.3376 24.0667 98.6576 25.3867 97.6709 26.56C96.7109 27.7333 95.4976 28.6533 94.0309 29.32C92.5643 29.9867 90.9243 30.32 89.1109 30.32C86.9243 30.32 84.9776 29.8533 83.2709 28.92C81.5643 27.9867 80.2309 26.6533 79.2709 24.92C78.3109 23.1867 77.8309 21.16 77.8309 18.84C77.8309 16.52 78.2976 14.4933 79.2309 12.76C80.1909 11.0267 81.5243 9.69333 83.2309 8.76C84.9376 7.82667 86.8976 7.36 89.1109 7.36C91.2709 7.36 93.1909 7.81333 94.8709 8.72C96.5509 9.62667 97.8576 10.92 98.7909 12.6C99.7509 14.28 100.231 16.24 100.231 18.48ZM93.2309 16.68C93.2309 15.5067 92.8309 14.5733 92.0309 13.88C91.2309 13.1867 90.2309 12.84 89.0309 12.84C87.8843 12.84 86.9109 13.1733 86.1109 13.84C85.3376 14.5067 84.8576 15.4533 84.6709 16.68H93.2309ZM110.679 11.4C111.479 10.1733 112.479 9.21333 113.679 8.52C114.879 7.8 116.213 7.44 117.679 7.44V14.68H115.799C114.093 14.68 112.813 15.0533 111.959 15.8C111.106 16.52 110.679 17.8 110.679 19.64V30H103.839V7.68H110.679V11.4ZM133.389 24.2V30H129.909C127.429 30 125.495 29.4 124.109 28.2C122.722 26.9733 122.029 24.9867 122.029 22.24V13.36H119.309V7.68H122.029V2.24H128.869V7.68H133.349V13.36H128.869V22.32C128.869 22.9867 129.029 23.4667 129.349 23.76C129.669 24.0533 130.202 24.2 130.949 24.2H133.389ZM162.675 15.6C164.302 15.9467 165.609 16.76 166.595 18.04C167.582 19.2933 168.075 20.7333 168.075 22.36C168.075 24.7067 167.249 26.5733 165.595 27.96C163.969 29.32 161.689 30 158.755 30H145.675V1.92H158.315C161.169 1.92 163.395 2.57333 164.995 3.88C166.622 5.18667 167.435 6.96 167.435 9.2C167.435 10.8533 166.995 12.2267 166.115 13.32C165.262 14.4133 164.115 15.1733 162.675 15.6ZM152.515 13.28H156.995C158.115 13.28 158.969 13.04 159.555 12.56C160.169 12.0533 160.475 11.32 160.475 10.36C160.475 9.4 160.169 8.66667 159.555 8.16C158.969 7.65333 158.115 7.4 156.995 7.4H152.515V13.28ZM157.555 24.48C158.702 24.48 159.582 24.2267 160.195 23.72C160.835 23.1867 161.155 22.4267 161.155 21.44C161.155 20.4533 160.822 19.68 160.155 19.12C159.515 18.56 158.622 18.28 157.475 18.28H152.515V24.48H157.555ZM193.082 18.48C193.082 19.12 193.043 19.7867 192.963 20.48H177.483C177.589 21.8667 178.029 22.9333 178.803 23.68C179.603 24.4 180.576 24.76 181.723 24.76C183.429 24.76 184.616 24.04 185.283 22.6H192.563C192.189 24.0667 191.509 25.3867 190.523 26.56C189.563 27.7333 188.349 28.6533 186.883 29.32C185.416 29.9867 183.776 30.32 181.963 30.32C179.776 30.32 177.829 29.8533 176.123 28.92C174.416 27.9867 173.083 26.6533 172.123 24.92C171.163 23.1867 170.683 21.16 170.683 18.84C170.683 16.52 171.149 14.4933 172.083 12.76C173.043 11.0267 174.376 9.69333 176.083 8.76C177.789 7.82667 179.749 7.36 181.963 7.36C184.123 7.36 186.043 7.81333 187.723 8.72C189.403 9.62667 190.709 10.92 191.643 12.6C192.603 14.28 193.082 16.24 193.082 18.48ZM186.083 16.68C186.083 15.5067 185.683 14.5733 184.883 13.88C184.083 13.1867 183.083 12.84 181.883 12.84C180.736 12.84 179.763 13.1733 178.963 13.84C178.189 14.5067 177.709 15.4533 177.523 16.68H186.083ZM203.531 0.4V30H196.691V0.4H203.531ZM215.328 0.4V30H208.488V0.4H215.328Z" fill="#282F36"></path>
</svg>